<?xml version="1.0" encoding="utf-8"?>
<!-- Generator: Adobe Illustrator 16.0.0, SVG Export Plug-In . SVG Version: 6.00 Build 0)  -->
<!DOCTYPE svg PUBLIC "-//W3C//DTD SVG 1.0//EN" "http://www.w3.org/TR/2001/REC-SVG-20010904/DTD/svg10.dtd">
<svg version="1.0" id="Layer_1" xmlns="http://www.w3.org/2000/svg" xmlns:xlink="http://www.w3.org/1999/xlink" x="0px" y="0px"
	 width="1000px" height="1000px" viewBox="0 0 1000 1000" enable-background="new 0 0 1000 1000" xml:space="preserve">
<g>
	<g>
		<g>
			<path d="M170.632,612.971h30.849V727.3h68.349v25.94h-99.198V612.971z"/>
			<path d="M312.921,635.96h-27.887v-22.989h27.887V635.96z M285.034,651.679h27.887V753.24h-27.887V651.679z"/>
			<path d="M334.943,651.679h26.525v14.139h0.598c7.058-11.596,19.252-16.898,31.027-16.898c29.667,0,37.132,16.696,37.132,41.836
				v62.485h-27.887v-57.373c0-16.686-4.718-24.937-17.878-24.937c-15.132,0-21.617,8.431-21.617,29.067v53.242h-27.899V651.679z"/>
			<path d="M450.325,682.908c1.577-25.929,24.962-33.989,47.737-33.989c20.243,0,44.595,4.526,44.595,28.878v52.848
				c0,9.231,0.979,18.477,3.534,22.596h-28.279c-0.992-3.152-1.769-6.497-1.972-9.816c-8.838,9.22-21.604,12.563-34.18,12.563
				c-19.444,0-34.576-9.625-34.576-30.454c0-26.119,22.597-29.666,41.658-31.817c17.472-1.97,25.929-3.344,25.929-12.385
				c0-11.786-8.254-13.745-18.083-13.745c-10.797,0-17.484,4.311-18.463,15.322H450.325z M514.771,703.534
				c-2.951,2.759-9.245,3.93-16.9,4.909c-11.585,1.575-22.788,3.545-22.788,15.919c0,10.212,8.061,12.957,17.09,12.957
				c21.808,0,22.597-17.077,22.597-23.359V703.534z"/>
			<path d="M566.877,612.971h27.898v75.228l35.172-36.52h32.986L624.633,689l42.637,64.24h-33.8l-27.886-45.383l-10.809,10.414
				v34.969h-27.898V612.971z"/>
			<path d="M705.82,635.96h-27.886v-22.989h27.886V635.96z M677.935,651.679h27.886V753.24h-27.886V651.679z"/>
			<path d="M749.46,720.242c0,11.967,10.606,17.077,21.414,17.077c7.859,0,18.273-3.139,18.273-12.957
				c0-8.455-11.788-11.596-31.624-15.716c-16.315-3.739-32.223-9.043-32.223-27.112c0-25.939,22.393-32.615,44.2-32.615
				c21.999,0,42.625,7.465,44.786,32.412h-26.514c-0.787-10.795-9.04-13.745-19.06-13.745c-6.282,0-15.515,0.991-15.515,9.423
				c0,10.021,15.908,11.394,31.626,15.132c16.302,3.727,32.209,9.625,32.209,28.483c0,26.717-23.372,35.363-46.351,35.363
				c-23.575,0-46.756-8.837-47.735-35.745H749.46z"/>
			<path d="M285.87,948.4h-0.394c-6.485,10.987-17.688,15.706-30.849,15.706c-30.634,0-45.575-26.133-45.575-54.425
				c0-27.29,15.132-52.633,44.989-52.633c11.991,0,23.767,5.1,30.049,15.119h0.406v-51.079h27.887v140.271H285.87V948.4z
				 M261.507,878.068c-18.273,0-24.555,15.908-24.555,32.412c0,15.91,7.261,32.606,24.555,32.606
				c18.272,0,23.969-16.101,23.969-32.808C285.476,893.774,279.588,878.068,261.507,878.068z"/>
			<path d="M362.15,844.079h-27.887v-22.99h27.887V844.079z M334.263,859.796h27.887v101.563h-27.887V859.796z"/>
			<path d="M481.819,954.862c0,16.709-6.091,45.001-52.645,45.001c-20.041,0-43.221-9.625-44.786-32.604h27.684
				c2.556,10.401,10.809,13.924,20.829,13.924c15.527,0,22.585-10.401,22.393-25.139v-13.353h-0.394
				c-6.078,10.808-18.069,15.716-30.442,15.716c-30.646,0-43.413-23.169-43.413-51.08c0-26.322,15.311-50.279,43.604-50.279
				c13.364,0,23.384,4.514,30.25,16.302h0.394v-13.555h26.526V954.862z M455.292,909.301c0-16.507-5.696-31.232-23.766-31.232
				c-15.716,0-22.596,13.747-22.596,28.879c0,14.522,5.315,30.441,22.596,30.441C447.435,937.389,455.292,923.834,455.292,909.301z"
				/>
			<path d="M532.959,844.079h-27.888v-22.99h27.888V844.079z M505.071,859.796h27.888v101.563h-27.888V859.796z"/>
			<path d="M590.357,859.796h20.421v18.655h-20.421v50.292c0,9.434,2.352,11.787,11.775,11.787c3.142,0,6.09-0.203,8.646-0.788
				v21.82c-4.716,0.764-10.808,0.967-16.302,0.967c-17.28,0-32.019-3.727-32.019-24.148v-59.93h-16.9v-18.655h16.9v-30.454h27.899
				V859.796z"/>
			<path d="M622.997,891.027c1.565-25.929,24.948-33.979,47.735-33.979c20.231,0,44.584,4.514,44.584,28.866v52.848
				c0,9.232,0.991,18.477,3.547,22.597H690.57c-0.979-3.154-1.768-6.497-1.97-9.818c-8.839,9.221-21.605,12.565-34.183,12.565
				c-19.443,0-34.574-9.627-34.574-30.454c0-26.119,22.597-29.667,41.645-31.817c17.497-1.971,25.94-3.345,25.94-12.385
				c0-11.788-8.252-13.747-18.069-13.747c-10.809,0-17.484,4.312-18.476,15.324H622.997z M687.429,911.652
				c-2.949,2.759-9.243,3.929-16.899,4.908c-11.584,1.576-22.786,3.547-22.786,15.92c0,10.212,8.061,12.959,17.09,12.959
				c21.809,0,22.596-17.078,22.596-23.361V911.652z"/>
			<path d="M737.78,821.089h27.887v140.271H737.78V821.089z"/>
		</g>
		<polygon points="512.978,110.911 559.018,110.911 559.018,156.975 605.058,156.975 605.058,249.056 651.099,249.056 
			651.099,387.14 605.058,387.14 605.058,433.168 559.018,433.168 559.018,479.208 512.978,479.208 512.978,433.144 
			559.018,433.144 559.018,387.14 559.018,387.14 559.018,341.148 512.978,341.148 512.978,295.108 466.949,295.108 
			466.949,341.148 420.91,341.148 420.91,387.14 420.91,387.14 420.91,433.144 466.949,433.144 466.949,479.208 420.873,479.208 
			420.873,433.168 374.869,433.168 374.869,387.14 328.853,387.14 328.853,249.056 374.869,249.056 374.869,110.911 420.91,110.911 
			420.91,156.975 466.949,156.975 466.949,18.854 512.978,18.854 		"/>
	</g>
</g>
</svg>
